HIERARCHY
ROOT Hips
{
	OFFSET 0.000000 8.830580 0.000000
	CHANNELS 6 Xposition Yposition Zposition Zrotation Yrotation Xrotation 
	JOINT Spine
	{
		OFFSET 0.000000 0.010000 0.000000
		CHANNELS 3 Zrotation Yrotation Xrotation
		JOINT Spine1
		{
			OFFSET 0.000000 2.459130 0.000000
			CHANNELS 3 Zrotation Yrotation Xrotation
			JOINT Neck
			{
				OFFSET 0.000000 2.484630 0.000000
				CHANNELS 3 Zrotation Yrotation Xrotation
				JOINT Head_virtual
				{
					OFFSET 0.000000 0.000000 0.000000
					CHANNELS 3 Zrotation Yrotation Xrotation
					JOINT Head
					{
						OFFSET 0.000000 0.927525 0.000000
						CHANNELS 3 Zrotation Yrotation Xrotation
						End Site
						{
							OFFSET 0.000000 0.000000 0.000000
						}
					}
				}
				JOINT LeftUpArm_virtual
				{
					OFFSET 0.000000 0.000000 0.000000
					CHANNELS 3 Zrotation Yrotation Xrotation
					JOINT LeftUpArm
					{
						OFFSET 1.248820 0.000000 0.000000
						CHANNELS 3 Zrotation Yrotation Xrotation
						JOINT LeftForeArm
						{
							OFFSET 2.597580 0.000000 0.000000
							CHANNELS 3 Zrotation Yrotation Xrotation
							JOINT LeftHand
							{
								OFFSET 2.455420 0.000000 0.000000
								CHANNELS 3 Zrotation Yrotation Xrotation
								End Site
								{
									OFFSET 0.000000 0.000000 0.000000
								}
							}
						}
					}
				}
				JOINT RightUpArm_virtual
				{
					OFFSET -0.000000 -0.000000 -0.000000
					CHANNELS 3 Zrotation Yrotation Xrotation
					JOINT RightUpArm
					{
						OFFSET -1.248820 -0.000000 -0.000000
						CHANNELS 3 Zrotation Yrotation Xrotation
						JOINT RightForeArm
						{
							OFFSET -2.597580 -0.000000 -0.000000
							CHANNELS 3 Zrotation Yrotation Xrotation
							JOINT RightHand
							{
								OFFSET -2.455420 -0.000000 -0.000000
								CHANNELS 3 Zrotation Yrotation Xrotation
								End Site
								{
									OFFSET 0.000000 0.000000 0.000000
								}
							}
						}
					}
				}
			}
		}
	}
	JOINT LeftUpLeg
	{
		OFFSET 1.271939 0.000000 0.000000
		CHANNELS 3 Zrotation Yrotation Xrotation
		JOINT LeftLowLeg
		{
			OFFSET 0.000000 -4.342910 0.000000
			CHANNELS 3 Zrotation Yrotation Xrotation
			JOINT LeftFoot
			{
				OFFSET 0.000000 -4.487670 0.000000
				CHANNELS 3 Zrotation Yrotation Xrotation
				JOINT LeftToeBase
				{
					OFFSET 0.000000 0.000000 1.515070
					CHANNELS 3 Zrotation Yrotation Xrotation
					End Site
					{
						OFFSET 0.000000 0.000000 0.000000
					}
				}
			}
		}
	}
	JOINT RightUpLeg
	{
		OFFSET -1.271939 0.000000 0.000000
		CHANNELS 3 Zrotation Yrotation Xrotation
		JOINT RightLowLeg
		{
			OFFSET 0.000000 -4.342910 0.000000
			CHANNELS 3 Zrotation Yrotation Xrotation
			JOINT RightFoot
			{
				OFFSET 0.000000 -4.487670 0.000000
				CHANNELS 3 Zrotation Yrotation Xrotation
				JOINT RightToeBase
				{
					OFFSET 0.000000 0.000000 1.515070
					CHANNELS 3 Zrotation Yrotation Xrotation
					End Site
					{
						OFFSET 0.000000 0.000000 0.000000
					}
				}
			}
		}
	}
}
MOTION
Frames: 10
Frame Time: 0.041667
-10.983693 8.890743 50.224683 -175.078512 9.280043 -176.897310 8.441645 -5.734000 -8.331069 15.697725 -7.117748 22.107041 0.000000 0.000000 0.000000 -9.252529 -1.519474 -7.857788 4.139989 -2.577152 -46.533906 -22.772900 4.448970 1.998560 -47.427299 -5.348370 42.940201 0.000000 -44.360100 0.000000 18.161501 6.036310 8.652410 21.624800 -1.028670 1.544820 31.959801 12.030700 9.587040 0.000000 35.619900 0.000000 -2.921380 -1.687370 -28.098801 5.132573 -1.775110 -9.464254 0.000000 0.000000 58.475601 -9.148805 -21.836550 17.712644 0.000000 0.000000 -37.871099 3.802831 3.067830 -19.135489 0.000000 0.000000 21.579300 17.015357 -6.569326 8.890412 0.000000 0.000000 -25.764000 
-10.909648 8.918432 50.102248 -175.352130 8.443076 -177.081103 8.311124 -5.829934 -8.375358 16.030883 -7.262812 22.641008 0.000000 0.000000 0.000000 -9.179527 -1.686549 -8.245854 4.211908 -2.843912 -46.579616 -22.762400 4.526340 1.989850 -47.538898 -5.020130 42.863701 0.000000 -43.662800 0.000000 17.907900 6.556910 5.819190 21.445200 -0.751672 1.402360 31.950800 11.974700 9.324840 0.000000 34.487900 0.000000 -2.974050 -1.694680 -28.005899 5.248239 -1.547009 -11.654908 0.000000 0.000000 61.990101 -8.471704 -19.702316 17.338862 0.000000 0.000000 -37.638500 3.885875 2.680029 -17.972228 0.000000 0.000000 21.388800 16.977598 -6.701856 8.141556 0.000000 0.000000 -25.892800 
-10.835617 8.949586 49.980266 -175.649022 7.977489 -177.079566 7.981980 -5.549003 -8.404568 16.817952 -6.889157 22.761858 0.000000 0.000000 0.000000 -8.849075 -2.213764 -8.192588 4.319775 -3.146713 -46.765905 -22.856100 4.132200 2.153630 -47.582500 -4.486290 42.847000 0.000000 -43.128101 0.000000 17.188400 6.936410 5.944570 21.268600 -0.963865 1.474490 31.815399 11.867900 8.820860 0.000000 33.428501 0.000000 -3.066440 -2.028770 -27.942400 5.267656 -1.059733 -13.646279 0.000000 0.000000 64.519402 -6.772496 -17.427268 15.102811 0.000000 0.000000 -37.733200 3.978983 2.685967 -16.834545 0.000000 0.000000 20.825300 16.575059 -7.152750 7.559933 0.000000 0.000000 -25.827500 
-10.769367 8.984608 49.860344 -176.041343 7.490401 -177.190307 7.891171 -5.464683 -8.550038 16.705759 -6.893164 23.303977 0.000000 0.000000 0.000000 -8.647792 -2.375963 -8.334728 4.355576 -3.195901 -46.851280 -22.628300 4.378680 1.989400 -47.719200 -4.148850 42.647900 0.000000 -42.535599 0.000000 16.647900 6.923860 5.232740 21.409300 -0.347610 1.638010 31.639299 11.586600 8.234050 0.000000 32.332699 0.000000 -3.034560 -2.206720 -27.633400 5.102005 -0.773890 -15.394339 0.000000 0.000000 66.079597 -4.849448 -15.480124 13.187037 0.000000 0.000000 -37.450500 4.028973 2.292315 -15.469989 0.000000 0.000000 19.974501 15.944979 -7.549886 7.136243 0.000000 0.000000 -25.684400 
-10.709287 9.020433 49.744699 -176.493382 7.106874 -177.268335 7.666409 -5.207617 -8.529256 16.859457 -6.617713 23.507848 0.000000 0.000000 0.000000 -8.380511 -2.695460 -8.439340 4.358527 -3.364685 -46.768460 -22.449600 4.395370 1.895540 -47.826500 -3.755630 42.521301 0.000000 -42.118401 0.000000 16.550699 6.699470 5.166230 21.322300 -0.127923 1.647050 31.704700 11.272000 7.806600 0.000000 31.143000 0.000000 -3.044170 -2.423640 -27.369600 4.792037 -0.626497 -17.031149 0.000000 0.000000 66.772598 -2.787315 -13.781507 11.902319 0.000000 0.000000 -37.133801 3.984402 1.683866 -14.158842 0.000000 0.000000 19.071100 15.315015 -7.632885 6.904551 0.000000 0.000000 -25.604400 
-10.652873 9.054587 49.631089 -176.911386 6.710219 -177.227529 7.542299 -5.020207 -8.588153 16.819694 -6.424809 23.611907 0.000000 0.000000 0.000000 -8.339177 -2.814858 -8.508004 4.413205 -3.519740 -46.617637 -22.193001 4.573990 1.699100 -47.895100 -3.240850 42.209499 0.000000 -41.944599 0.000000 16.351999 6.439180 5.196540 21.243999 0.072150 1.642940 31.945400 11.068200 7.386160 0.000000 29.882099 0.000000 -3.243600 -2.254860 -26.649300 4.440393 -0.685796 -18.664087 0.000000 0.000000 66.729797 -1.104280 -12.018266 11.250580 0.000000 0.000000 -37.244900 3.900971 1.178383 -12.923780 0.000000 0.000000 18.046301 14.851084 -7.683491 6.770023 0.000000 0.000000 -25.635800 
-10.599974 9.084406 49.517080 -177.238525 6.427863 -177.154580 7.527285 -4.749337 -8.538515 16.743343 -6.118765 23.411351 0.000000 0.000000 0.000000 -8.246371 -3.041193 -8.272840 4.430290 -3.615813 -46.714158 -21.938601 4.720830 1.656680 -47.841000 -2.645020 41.695499 0.000000 -42.112000 0.000000 16.026600 6.473040 5.005890 21.168100 0.312526 1.330310 32.285801 10.414300 7.328670 0.000000 28.881901 0.000000 -3.577310 -2.590690 -25.980801 4.160950 -0.750256 -20.106399 0.000000 0.000000 65.987396 -0.588709 -10.492278 11.163110 0.000000 0.000000 -37.327499 3.849455 0.934692 -11.629369 0.000000 0.000000 16.849199 14.537342 -7.773108 6.662816 0.000000 0.000000 -25.620300 
-10.546843 9.107124 49.405474 -177.477795 6.149567 -176.757924 7.515246 -4.492168 -8.717397 16.761763 -5.800300 23.118878 0.000000 0.000000 0.000000 -8.330890 -3.153203 -8.089296 4.457214 -3.764112 -46.800962 -21.625601 4.940350 2.760960 -47.756100 -2.950680 40.685501 0.000000 -42.464401 0.000000 16.538000 6.562620 4.542950 21.227800 0.001699 2.946920 32.000500 11.479500 6.443630 0.000000 27.773600 0.000000 -3.969060 -2.436700 -25.807800 4.032503 -0.895910 -21.713589 0.000000 0.000000 64.682800 -0.676585 -9.650109 10.919013 0.000000 0.000000 -37.066900 3.895704 0.808227 -10.683976 0.000000 0.000000 15.683900 14.266279 -8.034652 6.479250 0.000000 0.000000 -25.738000 
-10.496625 9.122494 49.292545 -177.647024 5.884518 -176.688464 7.580090 -4.201346 -8.472113 16.720552 -5.444583 22.662690 0.000000 0.000000 0.000000 -8.427800 -3.283324 -7.882051 4.653143 -3.966484 -47.058071 -21.557800 5.215580 1.559060 -47.358799 -1.556620 40.923401 0.000000 -43.203701 0.000000 16.073500 6.951170 4.839690 21.318501 -0.317121 1.868460 32.310699 10.897400 7.064670 0.000000 26.962999 0.000000 -3.638600 -2.789940 -25.030600 3.983330 -1.032588 -22.820815 0.000000 0.000000 62.851398 -0.312672 -9.403834 10.503251 0.000000 0.000000 -37.222401 4.022619 0.227737 -9.483026 0.000000 0.000000 14.676700 13.959204 -7.865041 6.264451 0.000000 0.000000 -25.610000 
-10.447941 9.130624 49.178347 -177.762423 5.534947 -176.445748 7.666345 -3.972460 -8.567258 16.657049 -5.190732 22.416091 0.000000 0.000000 0.000000 -8.494416 -3.380628 -7.823545 4.739679 -4.133988 -47.185661 -21.405001 5.402930 1.320360 -46.968498 -0.930055 40.761398 0.000000 -43.991001 0.000000 16.462400 7.022430 4.389820 21.327999 -0.307432 1.651210 32.457100 10.394900 7.069220 0.000000 26.506701 0.000000 -3.433680 -2.861550 -24.954599 3.972147 -1.225930 -23.981134 0.000000 0.000000 60.599899 0.275786 -9.308535 10.009672 0.000000 0.000000 -37.074800 4.158195 0.002995 -8.445550 0.000000 0.000000 13.661300 13.904486 -7.984558 5.966357 0.000000 0.000000 -25.798800 
